PathFileType	4	(X/Y/Z)	/Users/niels/Desktop/University/Third Semester/Perception and Action/Exam/Gymnastics Motion Tracking/Code for Gym Tracking/Scripts/Analyzed Data/Start Salto/st_salto_bad_id5_1_Sports2D/st_salto_bad_id5_1_Sports2D_px_person00.trc
DataRate	CameraRate	NumFrames	NumMarkers	Units	OrigDataRate	OrigDataStartFrame	OrigNumFrames
29.886363636363633	29.886363636363633	10	22	m	29.886363636363633	99	264
Frame#	Time	Hip			RHip			RKnee			RAnkle			RBigToe			RSmallToe			RHeel			LHip			LKnee			LAnkle			LBigToe			LSmallToe			LHeel			Neck			Head			Nose			RShoulder			RElbow			RWrist			LShoulder			LElbow			LWrist		
		X1	Y1	Z1	X2	Y2	Z2	X3	Y3	Z3	X4	Y4	Z4	X5	Y5	Z5	X6	Y6	Z6	X7	Y7	Z7	X8	Y8	Z8	X9	Y9	Z9	X10	Y10	Z10	X11	Y11	Z11	X12	Y12	Z12	X13	Y13	Z13	X14	Y14	Z14	X15	Y15	Z15	X16	Y16	Z16	X17	Y17	Z17	X18	Y18	Z18	X19	Y19	Z19	X20	Y20	Z20	X21	Y21	Z21	X22	Y22	Z22
99	3.312547528517111	0.580318672179421	-0.487524005491748	0.0	0.5570882141725567	-0.49062020362131586	0.0	0.5469136989789164	-0.6276518544580438	0.0	0.5322764177105278	-0.7722911038759681	0.0	0.5687902993872194	-0.8214108863770586	0.0	0.5487513958325361	-0.8233428492229052	0.0	0.5202722866459722	-0.7892602466167162	0.0	0.599874212972026	-0.5010345527764374	0.0	0.5864117952394395	-0.6318152909663163	0.0	0.5681156675314433	-0.7677168367127345	0.0	0.5941467346478484	-0.8183544703096989	0.0	0.5996220875253376	-0.814358490661891	0.0	0.5553230255458478	-0.7860348853147011	0.0	0.6669481364463203	-0.3239919047293712	0.0	0.7320417859069211	-0.2774469157243268	0.0	0.7177487938221669	-0.316560458233043	0.0	0.6389311433506245	-0.3173227235644042	0.0	0.7214475512929062	-0.3414574072660286	0.0	0.8059386602049062	-0.29615452025222894	0.0	0.6844208866600398	-0.3444581739690109	0.0	0.7548223088864676	-0.34008276438308316	0.0	0.8111201948484767	-0.29881053008943087	0.0
100	3.3460076045627383	0.5852697799102212	-0.4781876869852478	0.0	0.5619107508091672	-0.4809791127161448	0.0	0.5489426192980668	-0.6178323722152028	0.0	0.5347075611675982	-0.7620422875413755	0.0	0.5704449559771211	-0.8139987312822805	0.0	0.5496737915920339	-0.8152869790691554	0.0	0.5236591678157275	-0.7780804900971992	0.0	0.6046830296154316	-0.4924165687854983	0.0	0.5884493921006869	-0.6227832527071446	0.0	0.5704727342853664	-0.7592093104712743	0.0	0.594624885547674	-0.8122126428859514	0.0	0.6006073245493211	-0.8092458656441066	0.0	0.5582196357777293	-0.776436491649228	0.0	0.6804306753732605	-0.3195522614267115	0.0	0.7498681502557812	-0.27704944764180317	0.0	0.7326935814878707	-0.3160005892686439	0.0	0.6536594151224701	-0.31065974313124173	0.0	0.7304923357926072	-0.34430024350712807	0.0	0.8203478718479167	-0.3077417636422586	0.0	0.6957482270865688	-0.3394297911949714	0.0	0.7618859899573871	-0.3410156147495918	0.0	0.8246224515886602	-0.3076341191568429	0.0
101	3.3794676806083657	0.5901636110547901	-0.46874873663710287	0.0	0.5667572244159942	-0.4707831994133631	0.0	0.5522801809694912	-0.6081224933120843	0.0	0.5362311034407469	-0.7514299162778988	0.0	0.5701591544496991	-0.8059582666267124	0.0	0.5488289409334156	-0.806094855618931	0.0	0.5259960963140806	-0.7664211370187052	0.0	0.6095580110354412	-0.4834161766030471	0.0	0.5916622603980685	-0.6135182363484866	0.0	0.5723001921209834	-0.7503517503015976	0.0	0.5941191303611385	-0.8043703692089706	0.0	0.6009140625642556	-0.8023289162284243	0.0	0.560579702771527	-0.7661404762614071	0.0	0.6938851059318655	-0.31545733101885143	0.0	0.7679082989811954	-0.27719977618017666	0.0	0.7470206644641729	-0.3160323721584164	0.0	0.667809725087025	-0.30504381310275813	0.0	0.7379120128365261	-0.34814967964680105	0.0	0.8311404194405819	-0.32147367697145746	0.0	0.7072012223733997	-0.3346373916111791	0.0	0.7691892662580903	-0.342332620711747	0.0	0.8365639339891302	-0.3176898006865337	0.0
102	3.412927756653993	0.5950004150550011	-0.4588114033574949	0.0	0.5719175648292976	-0.4597621031058447	0.0	0.5569647591513623	-0.5982583674332693	0.0	0.5367029543663641	-0.740533750150872	0.0	0.5684357110764952	-0.7973346224587621	0.0	0.54706788133926	-0.7961046219074468	0.0	0.5267573169548646	-0.754320872779387	0.0	0.6144748892334448	-0.4734648381642007	0.0	0.5960325259299767	-0.6037968511879273	0.0	0.573354624975606	-0.7410322064103885	0.0	0.5929233102141852	-0.7950346800081303	0.0	0.6005884216461177	-0.7935850418136619	0.0	0.5619130951086774	-0.7553495085023926	0.0	0.7072531824728213	-0.3117407307337235	0.0	0.7861177720059257	-0.27803839489842136	0.0	0.7608753073886978	-0.3167083945550824	0.0	0.6814488379003765	-0.30046872709566197	0.0	0.7442699605072967	-0.3525608218833135	0.0	0.8391134447813815	-0.33664489495770955	0.0	0.7192715930877315	-0.329855976089543	0.0	0.778975404313399	-0.3437471926513835	0.0	0.8482459328534615	-0.32835219014351397	0.0
103	3.4463878326996205	0.599706199848589	-0.44824154786269627	0.0	0.5775131775529323	-0.44804325974931397	0.0	0.5628709363565892	-0.5881774782583353	0.0	0.5361141575125856	-0.7293890737430632	0.0	0.5657780524768138	-0.7880994708732783	0.0	0.5449979031629141	-0.7855421003903486	0.0	0.5257083526038433	-0.7417747987078943	0.0	0.6193886291356452	-0.46246017937878314	0.0	0.6013536580307656	-0.5936934816498933	0.0	0.5734179833809095	-0.7313139521084244	0.0	0.5912066559244548	-0.7847464596096763	0.0	0.5995102521065195	-0.7834817162801987	0.0	0.5619221637351016	-0.7443167188779269	0.0	0.7204176941501478	-0.3084396125184764	0.0	0.8038547730759493	-0.2796523825060509	0.0	0.7742264891428506	-0.3180870381071594	0.0	0.6947542807407822	-0.29698108367302034	0.0	0.7500099509660882	-0.3570934861412519	0.0	0.8451104138688276	-0.35228108042011075	0.0	0.7317683778985169	-0.32481243186385544	0.0	0.7915063414208321	-0.3452434379762598	0.0	0.8600422123497173	-0.33898077997482695	0.0
104	3.479847908745248	0.6043492319628837	-0.4370542185705101	0.0	0.5835840930532838	-0.43583384832881517	0.0	0.56979916106609	-0.5778927613837785	0.0	0.5345827819151187	-0.7177982924609915	0.0	0.5623424490793979	-0.778112530151821	0.0	0.5426526636197362	-0.7743715186257671	0.0	0.5229879489474196	-0.7285553960998109	0.0	0.6244113776642404	-0.45061139160871694	0.0	0.6073425194095052	-0.5834392122581324	0.0	0.5723553281123155	-0.7212165794132236	0.0	0.5888344276974233	-0.7740742427707746	0.0	0.5973716124364394	-0.7726636958968816	0.0	0.5605591497085293	-0.7330717110973597	0.0	0.7333606910815773	-0.3055147277507857	0.0	0.8203553073522062	-0.2821444085279098	0.0	0.7870227154160725	-0.3202728104303492	0.0	0.7081430935129646	-0.29458211121888367	0.0	0.7554638120671487	-0.3615186510604935	0.0	0.8498431820854363	-0.3676752617047944	0.0	0.7440270501438424	-0.31912194700511076	0.0	0.8050229696497961	-0.3470397858203468	0.0	0.8714530548307277	-0.34936342831120815	0.0
105	3.5133079847908752	0.6092127749877241	-0.42518734304581257	0.0	0.5902086097670166	-0.4230739190473485	0.0	0.5776495289393856	-0.567257460432881	0.0	0.5322940665512389	-0.7052750094877749	0.0	0.5579692619215142	-0.7670515049498217	0.0	0.5396683927774405	-0.7622742888459325	0.0	0.5189607244561418	-0.714137328273247	0.0	0.6298166559701713	-0.43803961894777865	0.0	0.6138092599383185	-0.5731327404800265	0.0	0.5701765074216238	-0.7104665620142563	0.0	0.5853757726367692	-0.7632117831070736	0.0	0.593762390945284	-0.7614354154986425	0.0	0.557927723812513	-0.7212731483586978	0.0	0.7462515527344891	-0.3028842549080656	0.0	0.8354215442654195	-0.28568798418310065	0.0	0.7994105870024131	-0.32333944468283365	0.0	0.7221064293753708	-0.29312507752593636	0.0	0.7608475391164514	-0.36583291968600823	0.0	0.8537677487639508	-0.38269375066530564	0.0	0.7557383790327977	-0.31245633960801805	0.0	0.8177968388867223	-0.3492847888867887	0.0	0.8820277263192111	-0.35976465271867	0.0
106	3.5467680608365026	0.6146288863550416	-0.41270211919103017	0.0	0.5973787654067494	-0.4097539649311301	0.0	0.5863134269355856	-0.5561810561862387	0.0	0.529466748761505	-0.691349692673552	0.0	0.5525273548746117	-0.7545921954935232	0.0	0.5356467018414051	-0.7489225646940827	0.0	0.5141168569379627	-0.6981016269210023	0.0	0.6357848722417938	-0.4249229078327472	0.0	0.6205751639433843	-0.5628377265578606	0.0	0.567092440048592	-0.6986563246269777	0.0	0.5803302270043592	-0.7519391410302809	0.0	0.5883560563418079	-0.7496592555016696	0.0	0.554247105804107	-0.7084478855454139	0.0	0.7592299571778007	-0.30050030463239774	0.0	0.8493182261478565	-0.29035833851183845	0.0	0.8114721553041886	-0.32709732664180674	0.0	0.736685426310872	-0.2923665813782408	0.0	0.7661466081536137	-0.370090671813899	0.0	0.856886591864855	-0.3974556257792694	0.0	0.7671192435247218	-0.3049473277647806	0.0	0.8289212260151	-0.3518398955656494	0.0	0.8913833846847362	-0.37053336825988387	0.0
107	3.58022813688213	0.6207967758470552	-0.4000396563511273	0.0	0.6049188572735424	-0.3963722763211057	0.0	0.5954830524508529	-0.5449516251098471	0.0	0.5263768681823237	-0.6759047593905682	0.0	0.5461380597998166	-0.7406669928672958	0.0	0.5304371829364539	-0.7342581436776379	0.0	0.5090332328426057	-0.6805378453197196	0.0	0.6422053178398938	-0.41178632143615607	0.0	0.6272970868718835	-0.5527940099713132	0.0	0.5634878901480623	-0.6855833397856742	0.0	0.5734512080985672	-0.739935328520754	0.0	0.5811060772987953	-0.7370841333941061	0.0	0.5498601430668004	-0.6943424916803067	0.0	0.7721452100250649	-0.2984409330389528	0.0	0.8621635536900886	-0.2959304775738007	0.0	0.8229098903463586	-0.33106563864462313	0.0	0.7512681883786695	-0.2921269912845001	0.0	0.7710640820057384	-0.37418383391738474	0.0	0.8587285604509466	-0.41182214719701293	0.0	0.7783772254844679	-0.2973488108348814	0.0	0.8378329336746494	-0.3543734321388588	0.0	0.8987313122431503	-0.3817123648469323	0.0
108	3.6136882129277574	0.6277713240524222	-0.387748919782302	0.0	0.6127058856822765	-0.38368081798637826	0.0	0.6047598657744453	-0.5340831341021666	0.0	0.5233886971715211	-0.6591001291835313	0.0	0.5391044718715806	-0.7253565068066398	0.0	0.524269281558014	-0.7183519754488817	0.0	0.5042874786928981	-0.6618373868938279	0.0	0.6487908283259709	-0.3991954929008771	0.0	0.6335758909802741	-0.5431806361158753	0.0	0.5598152386121432	-0.6711793494836286	0.0	0.56500654717757	-0.7268555882368207	0.0	0.5723663615617524	-0.7234414567848769	0.0	0.545193088853541	-0.6788951389208907	0.0	0.7846917731209315	-0.2969426571766555	0.0	0.87387857059409	-0.30197055957048324	0.0	0.8332683578469964	-0.33481201966720797	0.0	0.7651205399715861	-0.29232252537210446	0.0	0.7752208264129963	-0.3778160574910576	0.0	0.858648273268176	-0.42540041389804956	0.0	0.7894333603539851	-0.29072801835668494	0.0	0.8443390324795443	-0.35670485571754573	0.0	0.9032032794752054	-0.3930862158067223	0.0
